<svg width="24" height="25" viewBox="0 0 24 25" fill="none" xmlns="http://www.w3.org/2000/svg">
<g id="Frame">
<g id="Group">
<path id="Vector" fill-rule="evenodd" clip-rule="evenodd" d="M12.219 7.92017C12.2887 7.85032 12.3714 7.79491 12.4625 7.7571C12.5537 7.71929 12.6513 7.69983 12.75 7.69983C12.8486 7.69983 12.9463 7.71929 13.0374 7.7571C13.1286 7.79491 13.2113 7.85032 13.281 7.92017L17.781 12.4202C17.8508 12.4898 17.9063 12.5726 17.9441 12.6637C17.9819 12.7548 18.0013 12.8525 18.0013 12.9512C18.0013 13.0498 17.9819 13.1475 17.9441 13.2386C17.9063 13.3297 17.8508 13.4125 17.781 13.4822L13.281 17.9822C13.1402 18.123 12.9492 18.2021 12.75 18.2021C12.5508 18.2021 12.3598 18.123 12.219 17.9822C12.0782 17.8413 11.999 17.6503 11.999 17.4512C11.999 17.252 12.0782 17.061 12.219 16.9202L16.1895 12.9512L12.219 8.98217C12.1492 8.9125 12.0937 8.82974 12.0559 8.73862C12.0181 8.6475 11.9987 8.54982 11.9987 8.45117C11.9987 8.35252 12.0181 8.25484 12.0559 8.16372C12.0937 8.0726 12.1492 7.98984 12.219 7.92017Z" fill="white"/>
<path id="Vector_2" fill-rule="evenodd" clip-rule="evenodd" d="M6 12.9512C6 12.7523 6.07902 12.5615 6.21967 12.4208C6.36032 12.2802 6.55109 12.2012 6.75 12.2012H16.5C16.6989 12.2012 16.8897 12.2802 17.0303 12.4208C17.171 12.5615 17.25 12.7523 17.25 12.9512C17.25 13.1501 17.171 13.3409 17.0303 13.4815C16.8897 13.6222 16.6989 13.7012 16.5 13.7012H6.75C6.55109 13.7012 6.36032 13.6222 6.21967 13.4815C6.07902 13.3409 6 13.1501 6 12.9512Z" fill="white"/>
</g>
</g>
</svg>
